# xmcd
#
# Track frame offsets: 
#        150
#        13985
#        26985
#        42520
#        57627
#        72540
#        84790
#        97200
#        110695
#        124220
#        139517
#        153902
#        167160
#        179780
#        192462
#        205885
#        220887
#        234505
#        249742
#        262867
#        278602
#        291992
#        305000
#        320727
#        335232
#
# Disc length: 4662 seconds
#
# Revision: 2
# Processed by: cddbd v1.5.2PL0 Copyright (c) Steve Scherf et al.
# Submitted via: ExactAudioCopy v0.95a5
#
DISCID=96123419
DTITLE=The Hokum Boys - Complete Recorded Works, Volume 1 (1929)
DYEAR=1900
DGENRE=Blues
TTITLE0=Caught Him Doing It
TTITLE1=Better Cut That Out
TTITLE2=Hokum Blues
TTITLE3=Somebody's Been Using That Thing
TTITLE4=Caught Him Doin' It
TTITLE5=Better Cut That Out
TTITLE6=Put Your Mind on It
TTITLE7=It's All Worn Out
TTITLE8=You Can't Get Enough of That Stuff
TTITLE9=I Was Afraid of That Pt. 1
TTITLE10=Ain't Goin' That Way
TTITLE11=Went to His Head
TTITLE12=Let Me Pat That Thing
TTITLE13=Gambler's Blues (St. James Infirmary Blues)
TTITLE14=Let Me Have It
TTITLE15=The Folks Down Stairs
TTITLE16=Gambler's Blues No. 2
TTITLE17=Somebody's Been Using That Thing No. 2
TTITLE18=Selling That Stuff No. 2
TTITLE19=Gin Mill Blues
TTITLE20=The Folks Down Stairs
TTITLE21=That's My Business
TTITLE22=Ain't Goin' to Beg for That Stuff
TTITLE23=It's All Gone Now (as Down Home Boys)
TTITLE24=You Do It (as Down Home Boys)
EXTD=
EXTT0=
EXTT1=
EXTT2=
EXTT3=
EXTT4=
EXTT5=
EXTT6=
EXTT7=
EXTT8=
EXTT9=
EXTT10=
EXTT11=
EXTT12=
EXTT13=
EXTT14=
EXTT15=
EXTT16=
EXTT17=
EXTT18=
EXTT19=
EXTT20=
EXTT21=
EXTT22=
EXTT23=
EXTT24=
PLAYORDER=
